<svg width="116" height="30" viewBox="0 0 116 30" fill="none" xmlns="http://www.w3.org/2000/svg">
<g clip-path="url(#clip0_1317_1584)">
<mask id="mask0_1317_1584" style="mask-type:luminance" maskUnits="userSpaceOnUse" x="0" y="0" width="31" height="30">
<path d="M30.6689 0.0495605H0.768188V29.9502H30.6689V0.0495605Z" fill="white"/>
</mask>
<g mask="url(#mask0_1317_1584)">
<path d="M29.081 14.1059C29.081 21.5672 23.0324 27.6158 15.5711 27.6158C8.10976 27.6158 2.06116 21.5672 2.06116 14.1059C2.06116 6.64455 8.10976 0.595947 15.5711 0.595947C23.0324 0.595947 29.081 6.64455 29.081 14.1059Z" fill="white"/>
<path d="M15.8486 0.0496052C7.48889 -0.020163 0.698953 6.76978 0.768721 15.1295C0.83849 23.2475 7.47145 29.8805 15.587 29.9477C23.9467 30.02 30.7391 23.2276 30.6669 14.8679C30.5996 6.75234 23.9667 0.119373 15.8486 0.0496052ZM11.3785 7.48989C12.3353 8.70585 12.9084 10.2433 12.9084 11.9127C12.9084 13.3579 12.4798 14.7035 11.7423 15.8272H6.55948L11.3785 7.48989ZM27.181 17.6736C27.181 17.7433 27.1436 17.8031 27.0788 17.8305C26.7275 17.98 25.5688 18.5182 25.0854 19.1886C23.842 20.9203 22.8927 23.6413 20.7698 23.6413H11.9117C8.77462 23.6413 6.15084 21.152 6.15333 17.8355C6.15333 17.7533 6.2231 17.686 6.30532 17.686H10.5039C10.6484 17.686 10.763 17.8031 10.763 17.9451V18.7549C10.763 19.1861 11.1119 19.5348 11.5429 19.5348H14.7274V17.681H12.5521C13.8029 16.0963 14.548 14.0954 14.548 11.9176C14.548 9.48824 13.616 7.27311 12.0911 5.61611C13.013 5.72325 13.8951 5.90764 14.7274 6.15184V5.63604C14.7274 5.10033 15.1609 4.66677 15.6966 4.66677C16.2324 4.66677 16.6659 5.10033 16.6659 5.63604V6.87942C19.6385 8.2673 21.5846 10.5696 21.5846 13.1735C21.5846 14.701 20.9168 16.1237 19.7631 17.3197C19.5414 17.549 19.2348 17.6785 18.9135 17.6785H16.6659V19.5299H19.4866C20.0945 19.5299 21.1859 18.3762 21.7042 17.681C21.7042 17.681 21.7266 17.6461 21.7864 17.6287C21.8462 17.6113 26.9667 16.4352 26.9667 16.4352C27.0738 16.4053 27.181 16.4875 27.181 16.5971V17.6736Z" fill="#0086FF"/>
</g>
<path d="M42.812 21.4876C41.6292 21.4876 40.5429 21.2099 39.5532 20.6547C38.5635 20.0995 37.779 19.3331 37.1997 18.3555C36.6204 17.3658 36.3307 16.2494 36.3307 15.0062C36.3307 13.7751 36.6204 12.6708 37.1997 11.6931C37.779 10.7034 38.5635 9.93097 39.5532 9.37577C40.5429 8.82057 41.6292 8.54297 42.812 8.54297C44.0069 8.54297 45.0932 8.82057 46.0708 9.37577C47.0605 9.93097 47.839 10.7034 48.4063 11.6931C48.9856 12.6708 49.2753 13.7751 49.2753 15.0062C49.2753 16.2494 48.9856 17.3658 48.4063 18.3555C47.839 19.3331 47.0605 20.0995 46.0708 20.6547C45.0811 21.2099 43.9948 21.4876 42.812 21.4876ZM42.812 19.2245C43.5724 19.2245 44.2422 19.0555 44.8216 18.7175C45.4009 18.3676 45.8535 17.8727 46.1794 17.233C46.5053 16.5933 46.6683 15.851 46.6683 15.0062C46.6683 14.1613 46.5053 13.4251 46.1794 12.7975C45.8535 12.1578 45.4009 11.6689 44.8216 11.331C44.2422 10.993 43.5724 10.8241 42.812 10.8241C42.0516 10.8241 41.3758 10.993 40.7843 11.331C40.205 11.6689 39.7524 12.1578 39.4266 12.7975C39.1006 13.4251 38.9377 14.1613 38.9377 15.0062C38.9377 15.851 39.1006 16.5933 39.4266 17.233C39.7524 17.8727 40.205 18.3676 40.7843 18.7175C41.3758 19.0555 42.0516 19.2245 42.812 19.2245Z" fill="white"/>
<path d="M52.9708 12.7795C53.2967 12.3208 53.7432 11.9407 54.3105 11.639C54.8899 11.3252 55.5476 11.1682 56.2839 11.1682C57.1408 11.1682 57.9132 11.3794 58.6012 11.8019C59.3013 12.2243 59.8504 12.8277 60.2487 13.6123C60.6591 14.3848 60.8642 15.284 60.8642 16.3098C60.8642 17.3358 60.6591 18.247 60.2487 19.0436C59.8504 19.8281 59.3013 20.4376 58.6012 20.8721C57.9132 21.3066 57.1408 21.5239 56.2839 21.5239C55.5476 21.5239 54.8958 21.373 54.3286 21.0713C53.7734 20.7695 53.3208 20.3893 52.9708 19.9307V26.1405H50.4362V11.3311H52.9708V12.7795ZM58.2753 16.3098C58.2753 15.7064 58.1486 15.1874 57.8951 14.7529C57.6537 14.3063 57.3279 13.9683 56.9175 13.7391C56.5192 13.5097 56.0847 13.3951 55.614 13.3951C55.1554 13.3951 54.7209 13.5158 54.3105 13.7572C53.9122 13.9864 53.5864 14.3244 53.3328 14.771C53.0915 15.2175 52.9708 15.7426 52.9708 16.3461C52.9708 16.9496 53.0915 17.4746 53.3328 17.9211C53.5864 18.3677 53.9122 18.7117 54.3105 18.9531C54.7209 19.1824 55.1554 19.297 55.614 19.297C56.0847 19.297 56.5192 19.1763 56.9175 18.9349C57.3279 18.6935 57.6537 18.3496 57.8951 17.903C58.1486 17.4565 58.2753 16.9254 58.2753 16.3098Z" fill="white"/>
<path d="M71.8491 16.1288C71.8491 16.4909 71.8249 16.8168 71.7766 17.1064H64.4444C64.5048 17.8306 64.7582 18.3979 65.2048 18.8083C65.6514 19.2186 66.2005 19.4238 66.8523 19.4238C67.7937 19.4238 68.4636 19.0195 68.8619 18.2108H71.5956C71.306 19.1763 70.7508 19.9729 69.93 20.6005C69.1093 21.2161 68.1015 21.5239 66.9066 21.5239C65.941 21.5239 65.072 21.3127 64.2996 20.8902C63.5393 20.4557 62.9417 19.8463 62.5072 19.0617C62.0848 18.2772 61.8737 17.372 61.8737 16.3461C61.8737 15.3081 62.0848 14.3968 62.5072 13.6123C62.9297 12.8277 63.5211 12.2243 64.2815 11.8019C65.0418 11.3794 65.9169 11.1682 66.9066 11.1682C67.8601 11.1682 68.711 11.3734 69.4593 11.7838C70.2197 12.1942 70.8051 12.7795 71.2155 13.5399C71.6379 14.2882 71.8491 15.1512 71.8491 16.1288ZM69.224 15.4047C69.2119 14.7529 68.9765 14.2339 68.5179 13.8477C68.0592 13.4494 67.4981 13.2502 66.8342 13.2502C66.2066 13.2502 65.6755 13.4433 65.241 13.8296C64.8186 14.2037 64.5591 14.7288 64.4625 15.4047H69.224Z" fill="white"/>
<path d="M78.7129 11.1863C79.9078 11.1863 80.8733 11.5665 81.6095 12.3269C82.3458 13.0752 82.714 14.1253 82.714 15.4771V21.3609H80.1794V15.821C80.1794 15.0244 79.9802 14.415 79.5819 13.9925C79.1836 13.558 78.6404 13.3407 77.9525 13.3407C77.2525 13.3407 76.6973 13.558 76.2869 13.9925C75.8886 14.415 75.6895 15.0244 75.6895 15.821V21.3609H73.1549V11.3311H75.6895V12.5804C76.0275 12.1459 76.4559 11.8079 76.9748 11.5665C77.5059 11.313 78.0852 11.1863 78.7129 11.1863Z" fill="white"/>
<path d="M88.5822 21.4876C87.7011 21.4876 86.9045 21.3367 86.1925 21.0349C85.4924 20.7332 84.9372 20.2987 84.5269 19.7314C84.1165 19.1642 83.9052 18.4943 83.8932 17.7219H86.6088C86.645 18.2408 86.826 18.6512 87.152 18.953C87.4899 19.2547 87.9486 19.4056 88.5279 19.4056C89.1192 19.4056 89.5839 19.2668 89.9219 18.9891C90.2598 18.6995 90.4288 18.3254 90.4288 17.8667C90.4288 17.4925 90.3142 17.1848 90.0848 16.9434C89.8555 16.702 89.5659 16.5149 89.2158 16.3821C88.8779 16.2373 88.4072 16.0804 87.8037 15.9114C86.983 15.6701 86.3132 15.4346 85.7941 15.2054C85.2872 14.964 84.8466 14.6079 84.4725 14.1372C84.1104 13.6544 83.9293 13.0148 83.9293 12.2182C83.9293 11.4699 84.1165 10.8181 84.4906 10.2629C84.8648 9.70767 85.3898 9.28524 86.0657 8.99557C86.7416 8.69383 87.514 8.54297 88.3831 8.54297C89.6866 8.54297 90.7426 8.86281 91.5513 9.50249C92.3721 10.1301 92.8246 11.0112 92.9091 12.1458H90.1211C90.0969 11.7112 89.9099 11.3551 89.5598 11.0776C89.2219 10.7879 88.7693 10.6431 88.202 10.6431C87.7072 10.6431 87.3088 10.7698 87.0071 11.0232C86.7175 11.2767 86.5726 11.6448 86.5726 12.1276C86.5726 12.4655 86.6812 12.7492 86.8985 12.9785C87.1278 13.1958 87.4054 13.3768 87.7313 13.5217C88.0692 13.6544 88.5399 13.8113 89.1434 13.9923C89.9641 14.2337 90.634 14.4751 91.153 14.7165C91.672 14.9579 92.1185 15.32 92.4928 15.8028C92.8669 16.2856 93.0539 16.9192 93.0539 17.7037C93.0539 18.3796 92.879 19.0072 92.5289 19.5865C92.1789 20.1659 91.666 20.6306 90.9901 20.9807C90.3142 21.3186 89.5115 21.4876 88.5822 21.4876Z" fill="white"/>
<path d="M103.853 16.1288C103.853 16.4909 103.829 16.8168 103.781 17.1064H96.4484C96.5087 17.8306 96.7621 18.3979 97.2088 18.8083C97.6553 19.2186 98.2045 19.4238 98.8563 19.4238C99.7977 19.4238 100.468 19.0195 100.866 18.2108H103.6C103.31 19.1763 102.755 19.9729 101.934 20.6005C101.114 21.2161 100.105 21.5239 98.9105 21.5239C97.9449 21.5239 97.076 21.3127 96.3036 20.8902C95.5432 20.4557 94.9457 19.8463 94.5112 19.0617C94.0888 18.2772 93.8776 17.372 93.8776 16.3461C93.8776 15.3081 94.0888 14.3968 94.5112 13.6123C94.9336 12.8277 95.5251 12.2243 96.2854 11.8019C97.0458 11.3794 97.9208 11.1682 98.9105 11.1682C99.8641 11.1682 100.715 11.3734 101.463 11.7838C102.223 12.1942 102.809 12.7795 103.22 13.5399C103.642 14.2882 103.853 15.1512 103.853 16.1288ZM101.228 15.4047C101.216 14.7529 100.981 14.2339 100.522 13.8477C100.063 13.4494 99.502 13.2502 98.8381 13.2502C98.2105 13.2502 97.6794 13.4433 97.2449 13.8296C96.8225 14.2037 96.5631 14.7288 96.4665 15.4047H101.228Z" fill="white"/>
<path d="M104.69 16.3098C104.69 15.296 104.89 14.3968 105.288 13.6123C105.698 12.8277 106.248 12.2243 106.935 11.8019C107.635 11.3794 108.414 11.1682 109.271 11.1682C110.02 11.1682 110.671 11.3191 111.226 11.6208C111.794 11.9226 112.246 12.3027 112.584 12.7614V11.3311H115.136V21.361H112.584V19.8945C112.258 20.3652 111.806 20.7575 111.226 21.0713C110.659 21.373 110.001 21.5239 109.253 21.5239C108.408 21.5239 107.635 21.3066 106.935 20.8721C106.248 20.4376 105.698 19.8281 105.288 19.0436C104.89 18.247 104.69 17.3358 104.69 16.3098ZM112.584 16.3461C112.584 15.7305 112.463 15.2055 112.222 14.771C111.98 14.3244 111.655 13.9864 111.244 13.7572C110.834 13.5158 110.393 13.3951 109.922 13.3951C109.452 13.3951 109.017 13.5097 108.619 13.7391C108.221 13.9683 107.895 14.3063 107.641 14.7529C107.4 15.1874 107.28 15.7064 107.28 16.3098C107.28 16.9133 107.4 17.4444 107.641 17.903C107.895 18.3496 108.221 18.6935 108.619 18.9349C109.029 19.1763 109.464 19.297 109.922 19.297C110.393 19.297 110.834 19.1824 111.244 18.9531C111.655 18.7117 111.98 18.3738 112.222 17.9393C112.463 17.4926 112.584 16.9616 112.584 16.3461Z" fill="white"/>
</g>
<defs>
<clipPath id="clip0_1317_1584">
<rect width="115.232" height="30" fill="white" transform="translate(0.768188)"/>
</clipPath>
</defs>
</svg>
